<mxfile host="app.diagrams.net" agent="Mozilla/5.0 (Windows NT 10.0; Win64; x64) AppleWebKit/537.36 (KHTML, like Gecko) Chrome/128.0.0.0 Safari/537.36" version="24.7.8">
  <diagram name="PÃ¡gina-1" id="Rv7nJj6LJ9XyTwVCDA3Z">
    <mxGraphModel dx="1434" dy="738" grid="1" gridSize="10" guides="1" tooltips="1" connect="1" arrows="1" fold="1" page="1" pageScale="1" pageWidth="1169" pageHeight="827" math="0" shadow="0">
      <root>
        <mxCell id="0" />
        <mxCell id="1" parent="0" />
        <mxCell id="IQ719sTym50L2dziKio4-7" style="edgeStyle=orthogonalEdgeStyle;rounded=0;orthogonalLoop=1;jettySize=auto;html=1;exitX=0.5;exitY=1;exitDx=0;exitDy=0;entryX=0.5;entryY=0;entryDx=0;entryDy=0;" edge="1" parent="1" source="IQ719sTym50L2dziKio4-1" target="IQ719sTym50L2dziKio4-3">
          <mxGeometry relative="1" as="geometry" />
        </mxCell>
        <mxCell id="IQ719sTym50L2dziKio4-1" value="INICIO" style="ellipse;whiteSpace=wrap;html=1;" vertex="1" parent="1">
          <mxGeometry x="480" y="100" width="120" height="50" as="geometry" />
        </mxCell>
        <mxCell id="IQ719sTym50L2dziKio4-8" style="edgeStyle=orthogonalEdgeStyle;rounded=0;orthogonalLoop=1;jettySize=auto;html=1;exitX=0.5;exitY=1;exitDx=0;exitDy=0;entryX=0.5;entryY=0;entryDx=0;entryDy=0;" edge="1" parent="1" source="IQ719sTym50L2dziKio4-3" target="IQ719sTym50L2dziKio4-5">
          <mxGeometry relative="1" as="geometry" />
        </mxCell>
        <mxCell id="IQ719sTym50L2dziKio4-3" value="minutos_usuario&lt;div&gt;minutos_semana = 10080&lt;/div&gt;&lt;div&gt;resultado = 0&lt;/div&gt;&lt;div&gt;i = 0&lt;/div&gt;" style="rounded=0;whiteSpace=wrap;html=1;align=left;spacingLeft=10;" vertex="1" parent="1">
          <mxGeometry x="455" y="190" width="170" height="80" as="geometry" />
        </mxCell>
        <mxCell id="IQ719sTym50L2dziKio4-19" style="edgeStyle=orthogonalEdgeStyle;rounded=0;orthogonalLoop=1;jettySize=auto;html=1;exitX=0.5;exitY=1;exitDx=0;exitDy=0;entryX=0.5;entryY=0;entryDx=0;entryDy=0;" edge="1" parent="1" source="IQ719sTym50L2dziKio4-4" target="IQ719sTym50L2dziKio4-10">
          <mxGeometry relative="1" as="geometry" />
        </mxCell>
        <mxCell id="IQ719sTym50L2dziKio4-4" value="minutos_usuario" style="shape=parallelogram;perimeter=parallelogramPerimeter;whiteSpace=wrap;html=1;fixedSize=1;" vertex="1" parent="1">
          <mxGeometry x="687.5" y="430" width="140" height="40" as="geometry" />
        </mxCell>
        <mxCell id="IQ719sTym50L2dziKio4-6" style="edgeStyle=orthogonalEdgeStyle;rounded=0;orthogonalLoop=1;jettySize=auto;html=1;exitX=1;exitY=0.5;exitDx=0;exitDy=0;entryX=0.5;entryY=0;entryDx=0;entryDy=0;" edge="1" parent="1" source="IQ719sTym50L2dziKio4-5" target="IQ719sTym50L2dziKio4-4">
          <mxGeometry relative="1" as="geometry" />
        </mxCell>
        <mxCell id="IQ719sTym50L2dziKio4-25" style="edgeStyle=orthogonalEdgeStyle;rounded=0;orthogonalLoop=1;jettySize=auto;html=1;exitX=0.5;exitY=1;exitDx=0;exitDy=0;entryX=0.5;entryY=0;entryDx=0;entryDy=0;" edge="1" parent="1" source="IQ719sTym50L2dziKio4-5" target="IQ719sTym50L2dziKio4-24">
          <mxGeometry relative="1" as="geometry" />
        </mxCell>
        <mxCell id="IQ719sTym50L2dziKio4-5" value="i &amp;lt; 15" style="rhombus;whiteSpace=wrap;html=1;" vertex="1" parent="1">
          <mxGeometry x="500" y="310" width="80" height="80" as="geometry" />
        </mxCell>
        <mxCell id="IQ719sTym50L2dziKio4-10" value="resultado = minutos_usuario / minutos_semana" style="rounded=0;whiteSpace=wrap;html=1;" vertex="1" parent="1">
          <mxGeometry x="625" y="510" width="265" height="60" as="geometry" />
        </mxCell>
        <mxCell id="IQ719sTym50L2dziKio4-23" style="edgeStyle=orthogonalEdgeStyle;rounded=0;orthogonalLoop=1;jettySize=auto;html=1;exitX=0.5;exitY=1;exitDx=0;exitDy=0;entryX=0.5;entryY=0;entryDx=0;entryDy=0;" edge="1" parent="1" source="IQ719sTym50L2dziKio4-12" target="IQ719sTym50L2dziKio4-5">
          <mxGeometry relative="1" as="geometry">
            <Array as="points">
              <mxPoint x="765" y="770" />
              <mxPoint x="980" y="770" />
              <mxPoint x="980" y="290" />
              <mxPoint x="540" y="290" />
            </Array>
          </mxGeometry>
        </mxCell>
        <mxCell id="IQ719sTym50L2dziKio4-12" value="i++" style="rounded=0;whiteSpace=wrap;html=1;" vertex="1" parent="1">
          <mxGeometry x="705" y="710" width="120" height="40" as="geometry" />
        </mxCell>
        <mxCell id="IQ719sTym50L2dziKio4-21" style="edgeStyle=orthogonalEdgeStyle;rounded=0;orthogonalLoop=1;jettySize=auto;html=1;exitX=0;exitY=0;exitDx=71.25;exitDy=40;exitPerimeter=0;entryX=0.5;entryY=0;entryDx=0;entryDy=0;" edge="1" parent="1" source="IQ719sTym50L2dziKio4-16" target="IQ719sTym50L2dziKio4-12">
          <mxGeometry relative="1" as="geometry" />
        </mxCell>
        <mxCell id="IQ719sTym50L2dziKio4-16" value="resultado" style="shape=display;whiteSpace=wrap;html=1;" vertex="1" parent="1">
          <mxGeometry x="695" y="630" width="130" height="40" as="geometry" />
        </mxCell>
        <mxCell id="IQ719sTym50L2dziKio4-22" style="edgeStyle=orthogonalEdgeStyle;rounded=0;orthogonalLoop=1;jettySize=auto;html=1;exitX=0.5;exitY=1;exitDx=0;exitDy=0;entryX=0.483;entryY=-0.01;entryDx=0;entryDy=0;entryPerimeter=0;" edge="1" parent="1" source="IQ719sTym50L2dziKio4-10" target="IQ719sTym50L2dziKio4-16">
          <mxGeometry relative="1" as="geometry" />
        </mxCell>
        <mxCell id="IQ719sTym50L2dziKio4-24" value="FIN" style="ellipse;whiteSpace=wrap;html=1;" vertex="1" parent="1">
          <mxGeometry x="480" y="430" width="120" height="40" as="geometry" />
        </mxCell>
      </root>
    </mxGraphModel>
  </diagram>
</mxfile>
